<svg id="Layer_1" data-name="Layer 1" xmlns="http://www.w3.org/2000/svg" viewBox="0 0 200 200"><defs><style>.cls-1{fill:#006ed4;}</style></defs><path class="cls-1" d="M105.51,184a76.54,76.54,0,1,1,76.54-76.54A76.62,76.62,0,0,1,105.51,184Zm0-150.53a74,74,0,1,0,74,74A74.07,74.07,0,0,0,105.51,33.48Z"/><path class="cls-1" d="M132.71,116.25a9.75,9.75,0,0,1-1.26-.1,5.69,5.69,0,0,0-.95-.08q-8.43,0-16.86,0H102.16c-6.22,0-12.64,0-19,0h0a2.33,2.33,0,0,1-2.64-2.64c0-3.11.14-6.13,2.08-8.87a11.34,11.34,0,0,1,9.52-5.16c11.79-.07,22.18-.07,31.77,0A11.64,11.64,0,0,1,135.45,111c0,.27.05.6.09.94.13,1.1.29,2.47-.58,3.47A2.79,2.79,0,0,1,132.71,116.25Zm-2.19-2.73a10,10,0,0,1,1.24.11,4.89,4.89,0,0,0,1.29.05,4.77,4.77,0,0,0,0-1.49,11.69,11.69,0,0,1-.1-1.19,9.12,9.12,0,0,0-9-9c-9.59-.06-20-.06-31.74,0a8.91,8.91,0,0,0-7.46,4.1c-1.51,2.12-1.62,4.59-1.61,7.38v.1h.11c6.32,0,12.75,0,19,0h11.48c5.62,0,11.24,0,16.85,0Z"/><path class="cls-1" d="M108,97.29H108A16,16,0,0,1,92,81.11a16,16,0,0,1,16-15.85h.1A16,16,0,0,1,124,81.38h0A16,16,0,0,1,108,97.29Zm0-29.49a13.48,13.48,0,0,0-9.59,23,13.34,13.34,0,0,0,9.51,4h0a13.48,13.48,0,0,0,.11-26.95Z"/><path class="cls-1" d="M78.9,142.07l-.17,0H72.58a11.06,11.06,0,0,0-1.92,0h-.25a13.33,13.33,0,0,1-2.24-.08,6.6,6.6,0,0,1-1.06-.23l-.62-.17h-.24l-.55-.28-.74-.1-.23-.15a9,9,0,0,1-4.18-6.78,35.72,35.72,0,0,0-1.1-4.87c-.2-.7-.39-1.4-.56-2.1a7.33,7.33,0,0,1,4.94-9l.16,0s0-.06,0-.09A24.63,24.63,0,0,1,68.6,98.83a.91.91,0,0,0,.18-1A8.71,8.71,0,0,1,74.8,87a8.78,8.78,0,0,1,4.89,16.86,8.19,8.19,0,0,1-6-.4,18.25,18.25,0,0,0-2.78,14.32c.25,0,.47,0,.67,0H89.47q29.79,0,59.59,0h0c3.41,0,5.82,1.24,7.38,3.8a6.76,6.76,0,0,1,.81,5.35h0l-.45,1.81c-.59,2.29-1.19,4.66-1.62,7-.57,3.05-2.67,5.12-6.08,6l-.17,0a31.27,31.27,0,0,1-4,.11c-.78,0-1.51,0-2.25,0a2.09,2.09,0,0,1-.93-.14h-.33l-1,0a12.12,12.12,0,0,1-2.76,0h-.62a1.94,1.94,0,0,1-1.49-.36,1.74,1.74,0,0,1-.61-1.21c0-.09-.07-.19-.11-.29l0-.08-.08-.1-.06-.35a8.93,8.93,0,0,0-7.58-7l-3.79.15h-4.1l-.25-.1a1.2,1.2,0,0,0-.51,0l-.43,0-20.08,0h-9.1A8.59,8.59,0,0,0,81.75,138l-.07.16a5.91,5.91,0,0,0-.61,1.68c0,.12,0,.25,0,.39v.14A1.82,1.82,0,0,1,79.25,142h-.13Zm-6.09-2.58h5.73v-.08a8,8,0,0,1,.82-2.38,11.13,11.13,0,0,1,9.44-7.3H98l20.09,0h.26a3.7,3.7,0,0,1,1.41.13h3.48l3.93-.16h.06c4.6.26,9,4.23,10,8.91a1.9,1.9,0,0,1,.15.46l0,.07h.51l.09,0a9.83,9.83,0,0,0,2.3,0h2.29l.16.14c.77,0,1.54,0,2.28,0a29.88,29.88,0,0,0,3.56-.08c2.39-.63,3.73-1.92,4.11-4,.45-2.44,1.07-4.84,1.66-7.17l.45-1.8a4.24,4.24,0,0,0-.51-3.42c-1.09-1.78-2.69-2.58-5.21-2.58h0q-29.79,0-59.59,0h-18a3,3,0,0,0-.53,0,2.17,2.17,0,0,1-2.53-1.93A21,21,0,0,1,71.57,102a2.21,2.21,0,0,1,3.1-.85,5.71,5.71,0,0,0,4.29.29,6.23,6.23,0,1,0-7.21-9,6.09,6.09,0,0,0-.53,4.69,3.33,3.33,0,0,1-.58,3.22,22.19,22.19,0,0,0-4.15,17.32,2.36,2.36,0,0,1-1.91,3,4.77,4.77,0,0,0-3.22,6q.26,1,.54,2a40.62,40.62,0,0,1,1.18,5.21,6.38,6.38,0,0,0,2.8,4.83l.57.08L67,139l.84.23a3.53,3.53,0,0,0,.7.16,9.77,9.77,0,0,0,1.79.05h.25A15.35,15.35,0,0,1,72.81,139.49Z"/></svg>