<svg id="Layer_1" data-name="Layer 1" xmlns="http://www.w3.org/2000/svg" viewBox="0 0 200 200"><defs><style>.cls-1{fill:#006ed4;}</style></defs><path class="cls-1" d="M77.48,101.54H73.72a2,2,0,0,1-2-2V92a2,2,0,0,1,2-2h3.76a2,2,0,0,1,2,2v7.53A2,2,0,0,1,77.48,101.54ZM74.25,99H77V92.52H74.25Z"/><path class="cls-1" d="M143.52,93.37H131.36A2.35,2.35,0,0,1,129,91V86.4h-9.25V91a2.35,2.35,0,0,1-2.35,2.35H82.57A2.35,2.35,0,0,1,80.23,91V86.4H71V91a2.35,2.35,0,0,1-2.35,2.35H56.48A2.35,2.35,0,0,1,54.14,91V73.76a2.34,2.34,0,0,1,2.34-2.34H76.74V70.28c0-6.21,4.49-12.8,12.8-12.8h20.91c6.21,0,12.8,4.49,12.8,12.8v1.14h20.27a2.34,2.34,0,0,1,2.34,2.34V91A2.35,2.35,0,0,1,143.52,93.37Zm-12-2.55h11.75V74H120.71V70.28A10,10,0,0,0,110.45,60H89.54A10,10,0,0,0,79.29,70.28V74H56.68V90.82H68.43v-7H82.78v7h34.44v-7h14.35ZM114.14,74H85.85V68.49a3.54,3.54,0,0,1,3.69-3.68h20.91a3.53,3.53,0,0,1,3.69,3.68ZM88.4,71.42h23.19V68.49c0-.3,0-1.12-1.16-1.14H89.54a1,1,0,0,0-1.14,1.14Z"/><path class="cls-1" d="M126.27,101.54h-3.76a2,2,0,0,1-2-2V92a2,2,0,0,1,2-2h3.76a2,2,0,0,1,2,2v7.53A2,2,0,0,1,126.27,101.54ZM123,99h2.71V92.52H123Z"/><path class="cls-1" d="M141.82,141H58.18a2.35,2.35,0,0,1-2.34-2.35v-42a2.35,2.35,0,0,1,2.34-2.35H68.63A2.35,2.35,0,0,1,71,96.65v8.11h9.25V96.65a2.35,2.35,0,0,1,2.34-2.35h34.85a2.35,2.35,0,0,1,2.35,2.35v8.11H129V96.65a2.35,2.35,0,0,1,2.34-2.35h10.46a2.35,2.35,0,0,1,2.34,2.35v42A2.35,2.35,0,0,1,141.82,141Zm-83.44-2.55h83.23V96.85h-10v10.46H117.22V96.85H82.78v10.46H68.43V96.85H58.38Zm45.85-7H95.77a2.9,2.9,0,0,1-2.89-2.89v-4.87H88a2.88,2.88,0,0,1-2.88-2.89v-8.45A2.88,2.88,0,0,1,88,109.45h4.87v-4.87a2.9,2.9,0,0,1,2.89-2.89h8.46a2.9,2.9,0,0,1,2.89,2.89v4.87H112a2.88,2.88,0,0,1,2.88,2.89v8.45a2.88,2.88,0,0,1-2.88,2.89h-4.87v4.87A2.9,2.9,0,0,1,104.23,131.44ZM88,112a.35.35,0,0,0-.34.35v8.45a.35.35,0,0,0,.34.35h7.42v7.41a.34.34,0,0,0,.34.34h8.46a.34.34,0,0,0,.34-.34v-7.41H112a.35.35,0,0,0,.34-.35v-8.45A.35.35,0,0,0,112,112h-7.42v-7.41a.34.34,0,0,0-.34-.34H95.77a.34.34,0,0,0-.34.34V112Z"/><path class="cls-1" d="M100,178.31a76.54,76.54,0,1,1,76.54-76.54A76.63,76.63,0,0,1,100,178.31Zm0-150.53a74,74,0,1,0,74,74A74.08,74.08,0,0,0,100,27.78Z"/></svg>