<svg id="Layer_1" data-name="Layer 1" xmlns="http://www.w3.org/2000/svg" viewBox="0 0 200 200"><defs><style>.cls-1{fill:#006ed4;}</style></defs><path class="cls-1" d="M91.72,152.11h0c-1.42,0-2.88,0-4.35,0a1.55,1.55,0,0,1-1.66-1.67v-3.71c0-1.06,0-2.13,0-3.2H76.24v3c0,1.31,0,2.63,0,3.95a1.63,1.63,0,0,1-.45,1.19,1.65,1.65,0,0,1-1.19.45c-1.43,0-2.92,0-4.43,0a1.67,1.67,0,0,1-1.18-.44,1.56,1.56,0,0,1-.44-1.19v-6.94h-8.1a3.82,3.82,0,0,1-3.68-2.61,4.25,4.25,0,0,1-.21-1.4V137.2c0-1.31,0-2.63,0-3.94H48a1.57,1.57,0,0,1-1.68-1.67c0-1.33,0-2.72,0-4.4a1.52,1.52,0,0,1,1.62-1.62h8.67c0-2.83,0-5.65,0-8.48v-1H48a1.59,1.59,0,0,1-1.71-1.72c0-1,0-1.94,0-2.91v-1.43a1.56,1.56,0,0,1,.42-1.23,1.52,1.52,0,0,1,1.18-.41h8.67v-1.8c0-2.55,0-5.09,0-7.64H48a1.52,1.52,0,0,1-1.72-1.71V96.22c0-1.08,0-2.16,0-3.25a1.65,1.65,0,0,1,.44-1.19,1.54,1.54,0,0,1,1.2-.45h8.64V84.42a1.54,1.54,0,0,1,1.67-1.66c1.36,0,2.79,0,4.38,0a1.61,1.61,0,0,1,1.19.44,1.64,1.64,0,0,1,.45,1.2v24.06h8.63a11.4,11.4,0,0,1,2.34-4.19,11,11,0,0,1,19.15,5.54s0,.06,0,.09a6.12,6.12,0,0,1,.13,1.74,10.69,10.69,0,0,1-4.3,8.71,11,11,0,0,1-16.82-4.2H64.25q0,9.85,0,19.72h48.83V103.23a1.58,1.58,0,0,1,.41-1.21,1.55,1.55,0,0,1,1.22-.42h4.46a1.53,1.53,0,0,1,1.6,1.62v5.23h10.32a1.63,1.63,0,0,1,1.22.45,1.61,1.61,0,0,1,.45,1.21c0,1.37,0,2.81,0,4.39a1.61,1.61,0,0,1-.44,1.19,1.63,1.63,0,0,1-1.2.46H120.77v1.07q0,3.33,0,6.66c2.33,0,4.65,0,7,0h2.67a2.47,2.47,0,0,1,.68,0h.11a1.41,1.41,0,0,1,1.16.39,1.44,1.44,0,0,1,.4,1.2v1.14c0,1.12,0,2.23,0,3.34a1.61,1.61,0,0,1-.44,1.16,1.49,1.49,0,0,1-1.16.43h-10.4c0,2.65,0,5.29,0,7.94a3.84,3.84,0,0,1-4,4h-6.23V144q0,3.25,0,6.51a1.61,1.61,0,0,1-.45,1.19,1.68,1.68,0,0,1-1.2.45c-1.48,0-2.95,0-4.42,0a1.52,1.52,0,0,1-1.62-1.67c0-.38,0-.77,0-1.16v-5.75H93.36c0,.89,0,1.76,0,2.64v4.26a1.66,1.66,0,0,1-.45,1.23A1.64,1.64,0,0,1,91.72,152.11Zm-21.57-2.55ZM69.4,141a1.52,1.52,0,0,1,1.71,1.72v1.69c0,1.72,0,3.44,0,5.15h2.6v-3c0-1.3,0-2.59,0-3.89A1.53,1.53,0,0,1,75.32,141H86.6a1.61,1.61,0,0,1,1.18.44,1.63,1.63,0,0,1,.46,1.21c0,1.37,0,2.73,0,4.1v2.81h2.59v-3.38c0-1.18,0-2.36,0-3.54A1.53,1.53,0,0,1,92.45,141H103.7a1.55,1.55,0,0,1,1.21.45,1.57,1.57,0,0,1,.45,1.21q0,1.56,0,3.12v3.78H108c0-1.86,0-3.73,0-5.59v-3h8.77a1.32,1.32,0,0,0,1.5-1.51q0-4.41,0-8.83a1.54,1.54,0,0,1,1.67-1.65H130.2v-2.58H119.9a1.74,1.74,0,0,1-1.23-.45,1.7,1.7,0,0,1-.46-1.24q0-3.77,0-7.52v-1.89a1.53,1.53,0,0,1,1.74-1.73h10.25c0-.91,0-1.77,0-2.6h-12v-6.84h-2.59v34.24H63.41a1.59,1.59,0,0,1-1.71-1.71q0-10.72,0-21.46a1.54,1.54,0,0,1,1.66-1.65H75.27l.25,1a8.5,8.5,0,0,0,13.15,3.72,8.15,8.15,0,0,0,3.3-6.77v-.09a4,4,0,0,0-.07-1l0-.18a8.39,8.39,0,0,0-3-5.24,8.5,8.5,0,0,0-11.71.91,8.82,8.82,0,0,0-2,4.06l-.22,1H63.31a1.5,1.5,0,0,1-1.19-.4,1.57,1.57,0,0,1-.41-1.21v-.13q0-12,0-23.94h-2.6v6.84a1.68,1.68,0,0,1-.42,1.28,1.64,1.64,0,0,1-1.29.44H48.85v2.59h8.66a1.5,1.5,0,0,1,1.62,1.58c0,2.86,0,5.73,0,8.6V111H48.85v2.6h8.51l1.75,0v3.48c0,3.11,0,6.23,0,9.34a1.57,1.57,0,0,1-1.7,1.68H48.85v2.6h8.6a1.68,1.68,0,0,1,1.22.45,1.65,1.65,0,0,1,.46,1.22c0,1.61,0,3.21,0,4.82v2.34a1.9,1.9,0,0,0,.06.55,1.28,1.28,0,0,0,1.28.9H69.4Zm62.06-14.57h0ZM75.54,114.68h0Zm43.63-10.54ZM56.58,98Z"/><path class="cls-1" d="M83.49,117.52h0a5.91,5.91,0,0,1-4.14-10.11,6,6,0,0,1,4.21-1.7h0a5.78,5.78,0,0,1,4.11,1.75,5.91,5.91,0,0,1-4.2,10.06Zm0-9.27a3.43,3.43,0,0,0-2.42,1,3.38,3.38,0,0,0,0,4.75,3.36,3.36,0,0,0,2.39,1h0a3.36,3.36,0,0,0,3.36-3.29,3.41,3.41,0,0,0-1-2.45,3.28,3.28,0,0,0-2.31-1h0Z"/><path class="cls-1" d="M86.92,95.6a1.44,1.44,0,0,1-.46-.08,7.22,7.22,0,0,1-1.2-.17H85.2a1.24,1.24,0,0,1-.56-.13,12.13,12.13,0,0,1-4.25-1.74,13.88,13.88,0,0,1-6.68-12.38c0-.25,0-.5,0-.75l0-.42a4.63,4.63,0,0,1,.14-1,14,14,0,0,1,13.51-11.6c.6,0,1.19,0,1.78,0h41.32a14.11,14.11,0,0,1,4.68,27.46,12.25,12.25,0,0,1-3.43.7l-.15,0h-.1a5.39,5.39,0,0,1-.88,0H86.92ZM130.44,93h.26a5,5,0,0,0,.57,0l.32,0a9.42,9.42,0,0,0,2.8-.57A11.52,11.52,0,0,0,142,79.26h0a11.63,11.63,0,0,0-11.44-9.35h-43a11.63,11.63,0,0,0-11.07,9.55l0,.15a2.72,2.72,0,0,0-.07.5l0,.45c0,.18,0,.36,0,.54a11.35,11.35,0,0,0,5.52,10.23,9.83,9.83,0,0,0,3.48,1.41l.13,0h.15l.21.1a4.8,4.8,0,0,0,1,.13h.23l1.12.06h42.39Zm-44.72-.13.11.06A.24.24,0,0,0,85.72,92.91Zm.11,0,0,0Z"/><path class="cls-1" d="M107.08,90.46H87.34a9,9,0,0,1,.48-18h20.87l.07,1.22c0,.16,0,.31,0,.46v5.9q0,4.33,0,8.67a1.57,1.57,0,0,1-1.7,1.71ZM87.82,75a6.8,6.8,0,0,0-1.17.11,6.44,6.44,0,0,0,.83,12.76h18.75V75Z"/><path class="cls-1" d="M123.13,90.46H113A1.52,1.52,0,0,1,111.8,90a1.57,1.57,0,0,1-.44-1.15c0-1.49,0-3,0-4.49a1.62,1.62,0,0,1,.44-1.17,1.6,1.6,0,0,1,1.18-.43h8.66v-2.6h-8.58a1.71,1.71,0,0,1-1.25-.46,1.68,1.68,0,0,1-.45-1.24c0-1.33,0-2.75,0-4.36A1.53,1.53,0,0,1,113,72.49h17.54a9,9,0,0,1,9.06,9.32h0a8.89,8.89,0,0,1-8.73,8.63C128.28,90.46,125.71,90.46,123.13,90.46Zm-9.22-1.58Zm1.11-1h4c3.93,0,7.85,0,11.78,0a6.41,6.41,0,0,0,6.2-6.15h0a6.43,6.43,0,0,0-6.51-6.7H113.92v2.6h8.62a1.55,1.55,0,0,1,1.66,1.67c0,1.4,0,2.87,0,4.35a1.61,1.61,0,0,1-.45,1.21,1.66,1.66,0,0,1-1.23.46h-8.61c0,.87,0,1.73,0,2.6Z"/><path class="cls-1" d="M93.61,184.36a76.54,76.54,0,1,1,76.53-76.54A76.62,76.62,0,0,1,93.61,184.36Zm0-150.53a74,74,0,1,0,74,74A74.08,74.08,0,0,0,93.61,33.83Z"/></svg>