<svg id="Layer_1" data-name="Layer 1" xmlns="http://www.w3.org/2000/svg" viewBox="0 0 200 200"><defs><style>.cls-1{fill:#006ed4;}</style></defs><path class="cls-1" d="M64.41,107.27a5.21,5.21,0,0,1-2-.47q-4.64-2-9.26-4a8.05,8.05,0,0,1-4.49-4.36A8,8,0,0,1,49,92.25Q52.66,84,56.36,75.71q5.13-11.5,10.24-23a8.39,8.39,0,0,1,5.59-4.77l1.28-.39.17.7.23-.84,1.35.58C86.06,52.65,97,57.53,107.63,62.26c6.43,2.86,13.07,5.82,19.62,8.69l.1,0c.29.13.59.26.9.43a2.6,2.6,0,0,1-1,4.87,7.15,7.15,0,0,1-1,0H78.52a10.6,10.6,0,0,0-10.39,7.08,11.31,11.31,0,0,0-.61,4q0,6.51,0,13v3a3.74,3.74,0,0,1-1.47,3.4A2.92,2.92,0,0,1,64.41,107.27Zm9.24-57.12a2.14,2.14,0,0,1-1.23.92,5.47,5.47,0,0,0-3.28,3.4l-2.28,5.12q-3.16,7.13-6.34,14.24l-2.22,5c-2.19,4.88-4.45,9.93-6.63,14.92a4.37,4.37,0,0,0,2.21,6c2.38,1.16,4.88,2.21,7.29,3.23L63.71,104c.33.15.53.14.58.11a1,1,0,0,0,.21-.68,7,7,0,0,0,0-.79V86.78A13.51,13.51,0,0,1,78,73.31q16.19,0,32.39,0H125c-4.58-2-9.21-4.07-13.7-6.07l-10.7-4.75q-6.57-2.9-13.12-5.82L75.89,51.5l-.5-.21L74.7,51A2.18,2.18,0,0,1,73.65,50.15Z"/><path class="cls-1" d="M81.11,138.55c-1,0-2.07,0-3.11,0-4.39-.15-7.46-3.46-7.47-8q0-10.39,0-20.79V97.85q0-5.23,0-10.46a7.58,7.58,0,0,1,5.67-7.75,10.63,10.63,0,0,1,2.86-.28H117.8q10.9,0,21.8,0A8.16,8.16,0,0,1,146,81.87a7.73,7.73,0,0,1,2,5.35V93.8q0,18.45,0,36.89a7.54,7.54,0,0,1-7.61,7.81c-1.56.05-3.12,0-4.64,0h-2.94a1.74,1.74,0,0,1-1.91-2.19,19,19,0,0,0-.09-6.13,1.91,1.91,0,0,1,.35-1.64,2,2,0,0,1,1.65-.61h2.49c.72,0,1.45,0,2.17,0,0-6.75,0-13.36,0-18.49H81.06c0,6.14,0,12.38,0,18.53.85,0,1.7,0,2.53,0h2.07a2.06,2.06,0,0,1,1.68.61,1.94,1.94,0,0,1,.37,1.7,18.82,18.82,0,0,0,0,6.13,1.81,1.81,0,0,1-.36,1.54,1.87,1.87,0,0,1-1.52.58H81.11Zm28.17-56.64H79.06a8.51,8.51,0,0,0-2.19.19,5,5,0,0,0-3.79,5.29c0,3.49,0,7,0,10.46v11.83q0,10.39,0,20.78c0,3.24,2,5.4,5,5.5,1.65.06,3.33,0,5,0h2a20.78,20.78,0,0,1,.06-5.46H83.58c-.87,0-1.77,0-2.64,0a2.37,2.37,0,0,1-1.81-.55,2.3,2.3,0,0,1-.61-1.78c0-6.28,0-12.64,0-18.92a2.39,2.39,0,0,1,.59-1.79,2.51,2.51,0,0,1,1.83-.59q23.69,0,47.37,0h9.45a.48.48,0,0,0,.12,0,1.84,1.84,0,0,1,1.52.4,2,2,0,0,1,.62,1.6c0,5.32,0,12.35,0,19.52a1.88,1.88,0,0,1-2.16,2.06h-2.55c-.63,0-1.25,0-1.87,0a22.21,22.21,0,0,1,.07,5.47h2.26c1.49,0,3,0,4.54,0a5,5,0,0,0,5.15-5.27q0-18.45,0-36.89V87.22a5.2,5.2,0,0,0-1.31-3.64,5.59,5.59,0,0,0-4.51-1.68H109.28ZM81,96.53a2.56,2.56,0,0,1-2-.66A2.45,2.45,0,0,1,78.52,94a37.7,37.7,0,0,0,0-4.27,2.32,2.32,0,0,1,.54-1.75,2.27,2.27,0,0,1,1.75-.61q11,0,22,0h12.86q11,0,22.08,0a2.42,2.42,0,0,1,1.79.61,2.28,2.28,0,0,1,.54,1.73c-.07,1.51,0,3.08,0,4.59v.24a2.08,2.08,0,0,1-.6,1.6,1.92,1.92,0,0,1-1.56.41h-9.49Q104.7,96.51,81,96.53Zm0-6.67a40.11,40.11,0,0,1,0,4.13q23.64,0,47.3,0h9.09c0-1.34,0-2.72,0-4.09q-10.92,0-21.85,0H102.77Q91.93,89.9,81.08,89.86Z"/><path class="cls-1" d="M64.41,107.27a5.21,5.21,0,0,1-2-.47q-4.64-2-9.26-4a8.05,8.05,0,0,1-4.49-4.36A8,8,0,0,1,49,92.25Q52.66,84,56.36,75.71q5.13-11.5,10.24-23a8.39,8.39,0,0,1,5.59-4.77l.18,0H75l.24.1C86.06,52.65,97,57.53,107.63,62.26c6.43,2.86,13.07,5.82,19.62,8.69l.1,0c.29.13.59.26.9.43a2.52,2.52,0,0,1,1.26,2.91h0a2.54,2.54,0,0,1-2.3,2,7.15,7.15,0,0,1-1,0H78.52a10.6,10.6,0,0,0-10.39,7.08,11.31,11.31,0,0,0-.61,4q0,6.51,0,13v3a3.74,3.74,0,0,1-1.47,3.4A2.92,2.92,0,0,1,64.41,107.27Zm8.34-56.85a5.87,5.87,0,0,0-3.83,3.32q-5.1,11.5-10.24,23Q55,85,51.32,93.29A5.42,5.42,0,0,0,51,97.5a5.59,5.59,0,0,0,3.13,3l9.25,4c.76.33,1.16.29,1.27.21s.32-.43.32-1.27v-3c0-4.35,0-8.69,0-13a13.66,13.66,0,0,1,.77-4.86,13.21,13.21,0,0,1,12.77-8.76q17,0,33.92,0H126.2c.27,0,.52,0,.75,0a.26.26,0,0,0,.1,0l1.22.3-1.24-.3a.18.18,0,0,0,0-.06l0,0c-.2-.11-.43-.21-.67-.32l-.11,0c-6.55-2.89-13.2-5.85-19.62-8.71C96.08,59.9,85.21,55.05,74.45,50.42Z"/><path class="cls-1" d="M81.11,138.55c-1,0-2.07,0-3.11,0-4.39-.15-7.46-3.46-7.47-8q0-10.39,0-20.79V97.85q0-5.23,0-10.46a7.58,7.58,0,0,1,5.67-7.75,10.63,10.63,0,0,1,2.86-.28H117.8q10.9,0,21.8,0A8.16,8.16,0,0,1,146,81.87a7.73,7.73,0,0,1,2,5.35V93.8q0,18.45,0,36.89a7.54,7.54,0,0,1-7.61,7.81c-1.56.05-3.12,0-4.64,0h-2.94a1.74,1.74,0,0,1-1.91-2.19,19,19,0,0,0-.09-6.13,1.91,1.91,0,0,1,.35-1.64,2,2,0,0,1,1.65-.61h2.49c.72,0,1.45,0,2.17,0,0-6.75,0-13.36,0-18.49H81.06c0,6.14,0,12.38,0,18.53.85,0,1.7,0,2.53,0h2.07a2.06,2.06,0,0,1,1.68.61,1.94,1.94,0,0,1,.37,1.7,18.82,18.82,0,0,0,0,6.13,1.81,1.81,0,0,1-.36,1.54,1.87,1.87,0,0,1-1.52.58H81.11Zm28.17-56.64H79.06a8.51,8.51,0,0,0-2.19.19,5,5,0,0,0-3.79,5.29c0,3.49,0,7,0,10.46v11.83q0,10.39,0,20.78c0,3.24,2,5.4,5,5.5,1.65.06,3.33,0,5,0h2a20.78,20.78,0,0,1,.06-5.46H83.58c-.87,0-1.77,0-2.64,0a2.37,2.37,0,0,1-1.81-.55,2.3,2.3,0,0,1-.61-1.78c0-6.28,0-12.64,0-18.92a2.39,2.39,0,0,1,.59-1.79,2.51,2.51,0,0,1,1.83-.59q23.69,0,47.37,0h9.45a.48.48,0,0,0,.12,0,1.84,1.84,0,0,1,1.52.4,2,2,0,0,1,.62,1.6c0,5.32,0,12.35,0,19.52a1.88,1.88,0,0,1-2.16,2.06h-2.55c-.63,0-1.25,0-1.87,0a22.21,22.21,0,0,1,.07,5.47h2.26c1.49,0,3,0,4.54,0a5,5,0,0,0,5.15-5.27q0-18.45,0-36.89V87.22a5.2,5.2,0,0,0-1.31-3.64,5.59,5.59,0,0,0-4.51-1.68H109.28ZM81,96.53a2.56,2.56,0,0,1-2-.66A2.45,2.45,0,0,1,78.52,94a37.7,37.7,0,0,0,0-4.27,2.32,2.32,0,0,1,.54-1.75,2.27,2.27,0,0,1,1.75-.61q11,0,22,0h12.86q11,0,22.08,0a2.42,2.42,0,0,1,1.79.61,2.28,2.28,0,0,1,.54,1.73c-.07,1.51,0,3.08,0,4.59v.24a2.08,2.08,0,0,1-.6,1.6,1.92,1.92,0,0,1-1.56.41h-9.49Q104.7,96.51,81,96.53Zm0-6.67a40.11,40.11,0,0,1,0,4.13q23.64,0,47.3,0h9.09c0-1.34,0-2.72,0-4.09q-10.92,0-21.85,0H102.77Q91.93,89.9,81.08,89.86Z"/><path class="cls-1" d="M112.05,131.81a.6.6,0,0,0-.6.59c0,.18,0,.35,0,.53s0,.37,0,.56a.61.61,0,0,0,.61.58.59.59,0,0,0,.59-.57c0-.37,0-.74,0-1.11A.61.61,0,0,0,112.05,131.81Z"/><path class="cls-1" d="M110.66,141.64a.61.61,0,1,0,.61.61A.62.62,0,0,0,110.66,141.64Z"/><path class="cls-1" d="M107.88,141.64a.61.61,0,0,0-.61.61.6.6,0,0,0,.6.61.61.61,0,0,0,.61-.6A.62.62,0,0,0,107.88,141.64Z"/><path class="cls-1" d="M106.49,131.81a.64.64,0,0,0-.62.69v.89a.61.61,0,1,0,1.22,0v-.87A.62.62,0,0,0,106.49,131.81Z"/><path class="cls-1" d="M109.28,150.9h0a17.44,17.44,0,0,1,0-34.88h.11a17.44,17.44,0,0,1,0,34.88Zm-.08-32.33a14.63,14.63,0,0,0-10.37,4.3,14.89,14.89,0,0,0,10.41,25.49h0a14.9,14.9,0,0,0,0-29.79h-.09Z"/><path class="cls-1" d="M106.5,130.19a2.33,2.33,0,0,1-1.32-.4,2.25,2.25,0,0,1-1-1.51.75.75,0,0,1,.32-.77,5.15,5.15,0,0,1,2.89-1.05c.77,0,1,.05,1.26.79a2.32,2.32,0,0,1-.22,1.82,2.26,2.26,0,0,1-1.47,1.07A2.07,2.07,0,0,1,106.5,130.19Zm-1.32-2a1.31,1.31,0,0,0,.54.77,1.42,1.42,0,0,0,1.08.21,1.31,1.31,0,0,0,.84-.62,1.34,1.34,0,0,0,.13-1.07h0l0-.1h-.3A4.13,4.13,0,0,0,105.18,128.23Z"/><path class="cls-1" d="M100.38,134.9h-.82a1.08,1.08,0,0,1-1.12-1,4.57,4.57,0,0,1,3.44-4.46l.78-.18-.21.78a7.23,7.23,0,0,0-.24,1.08,6.78,6.78,0,0,0,.15,2.17c0,.12,0,.23.07.35a3.55,3.55,0,0,0,.09.47.63.63,0,0,1-.09.53.67.67,0,0,1-.48.25h-.15l-.39,0Zm1.49-1,0,.47,0-.47Zm-.55-3.27a3.59,3.59,0,0,0-1.92,3.21c0,.09.1.1.16.1h2l0-.16c0-.11,0-.22-.07-.33a7.47,7.47,0,0,1-.15-2.48A2.88,2.88,0,0,1,101.32,130.63Z"/><path class="cls-1" d="M102.7,129.14l-.24-.95a6.56,6.56,0,0,1,.24-4h0a6.56,6.56,0,0,1,1.07-1.84A1.09,1.09,0,0,1,105,122a1.07,1.07,0,0,1,.73,1.07,6.75,6.75,0,0,0,.55,2.58.58.58,0,0,1,0,.5.57.57,0,0,1-.37.34,5.51,5.51,0,0,0-2.66,1.88Zm.9-4.58a5.51,5.51,0,0,0-.36,2.46,6.23,6.23,0,0,1,2-1.3,8,8,0,0,1-.49-2.64c0-.15-.05-.16-.1-.18s-.08,0-.18.09a5.5,5.5,0,0,0-.91,1.57Z"/><path class="cls-1" d="M107.32,145H106a2.74,2.74,0,1,1,.06-5.48h6.37a3.5,3.5,0,0,1,.65.07,2.76,2.76,0,0,1,2.1,2.95h0a2.74,2.74,0,0,1-2.69,2.46h-5.2Zm1.14-4.53h-2.37a1.78,1.78,0,0,0-1.82,1.7,1.81,1.81,0,0,0,.49,1.32A1.76,1.76,0,0,0,106,144h6.43a1.82,1.82,0,0,0,1.8-1.62h0a1.81,1.81,0,0,0-1.38-1.91,2,2,0,0,0-.43,0h-4Z"/><path class="cls-1" d="M114.24,139.72a.62.62,0,0,1-.31-.1,3.37,3.37,0,0,0-1.84-.37h-.46c-.59,0-.8-.2-.84-.79h0v-.11a2.3,2.3,0,0,1,4.12-1.41.78.78,0,0,1,.17.68l-.3,1.6a.57.57,0,0,1-.32.46A.55.55,0,0,1,114.24,139.72Zm.16-.92Zm-2.09-.51a4.33,4.33,0,0,1,1.62.28l.21-1.09a1.36,1.36,0,0,0-1.48-.42,1.33,1.33,0,0,0-.91,1.23h0a1.31,1.31,0,0,0,.28,0Zm-.7.05-.34.09.41,0Zm2.54-.91Z"/><path class="cls-1" d="M104.3,139.71a.48.48,0,0,1-.23-.05.59.59,0,0,1-.32-.46l-.45-2.4c-.27-1.41-.54-2.83-.8-4.24a5.12,5.12,0,0,1,.8-3.71l.43-.61.46.81a2.57,2.57,0,0,0,4.81-.64,2.49,2.49,0,0,0,0-1.18.57.57,0,0,1,0-.54.59.59,0,0,1,.49-.23c.21,0,.42,0,.63,0a8,8,0,0,1,1.94.14,5.25,5.25,0,0,1,4,6.05h0l-.42,2.24-.17.9a1,1,0,0,1,0,.14l-.18.73-.56-.38a3.18,3.18,0,0,0-1-.45,2.53,2.53,0,0,0-2.24.58,2.5,2.5,0,0,0-.86,2.13.66.66,0,0,1-.14.52.67.67,0,0,1-.51.19h-3.7a2.91,2.91,0,0,0-1.56.36A.6.6,0,0,1,104.3,139.71Zm-.58-9.65a4.17,4.17,0,0,0-.28,2.33c.26,1.41.53,2.82.8,4.23l.36,1.95a4.3,4.3,0,0,1,1.6-.28c.66,0,1.33,0,2,0h1.39a3.45,3.45,0,0,1,1.19-2.61,3.52,3.52,0,0,1,3.09-.79,3.43,3.43,0,0,1,.72.25l.08-.44.42-2.24h0a4.29,4.29,0,0,0-3.24-4.94,6.87,6.87,0,0,0-1.71-.11H110a3.4,3.4,0,0,1,0,1.19,3.51,3.51,0,0,1-6.21,1.45Zm5.75-2.64h0Z"/><path class="cls-1" d="M115.78,129l-.56-.65a5.6,5.6,0,0,0-1.13-1.1,5.22,5.22,0,0,0-1.46-.76.59.59,0,0,1-.4-.33.58.58,0,0,1,0-.52,6.78,6.78,0,0,0,.54-2.62,1.09,1.09,0,0,1,.73-1,1,1,0,0,1,1.2.34,6.53,6.53,0,0,1,1.38,5.71l0,.12Zm-2.53-3.3a5.87,5.87,0,0,1,1.4.78,5.46,5.46,0,0,1,.64.53,5.47,5.47,0,0,0-1.31-4.08s-.07-.07-.14,0-.09,0-.09.14A7.72,7.72,0,0,1,113.25,125.71Z"/><path class="cls-1" d="M117.77,134.9a10.87,10.87,0,0,1-1.14-.05.68.68,0,0,1-.51-.25.69.69,0,0,1-.1-.57l.07-.35c.1-.47.19-.91.24-1.36a5.42,5.42,0,0,0-.2-2.15l0-.15-.16-.73.72.11a4.54,4.54,0,0,1,3.39,3.78,3.55,3.55,0,0,1,0,.65,1,1,0,0,1-1,1.06h-1.28Zm-.75-1c.44,0,.88,0,1.34,0h.69c.07,0,.09-.08.09-.13a4.55,4.55,0,0,0,0-.52,3.62,3.62,0,0,0-1.88-2.66,6.41,6.41,0,0,1,.06,1.8c-.06.49-.16,1-.25,1.44Z"/><path class="cls-1" d="M100,175.93a76.54,76.54,0,1,1,76.54-76.54A76.63,76.63,0,0,1,100,175.93ZM100,25.4a74,74,0,1,0,74,74A74.07,74.07,0,0,0,100,25.4Z"/></svg>