<svg id="Layer_1" data-name="Layer 1" xmlns="http://www.w3.org/2000/svg" viewBox="0 0 200 200"><defs><style>.cls-1{fill:#006ed4;}</style></defs><path class="cls-1" d="M70.29,137.69a22.12,22.12,0,0,1-8.39-1.52c-6.3-2.55-8.91-8.16-6.82-14.64a35.64,35.64,0,0,1,3.58-7.24l.61-1c6.15-10.5,10.82-22.62,14.26-37C78,57.41,91.69,48.23,111.05,51c8.26,1.21,14.72,3.54,20.33,7.34l.12.09,3.41,2.72,2,2,.28.3,1.64,1.94c9,9.86,9.27,26.29.58,37.42-5.85,7.47-13.5,13.68-24.81,20.13-14.35,8.17-26.73,12.72-39,14.31A42.18,42.18,0,0,1,70.29,137.69ZM104.4,54.54c-14,0-23.46,7.86-27,22.62s-8.35,27.28-14.7,38.13l-.62,1a32.43,32.43,0,0,0-3.21,6.43c-1.45,4.49.15,7.93,4.51,9.7,3.94,1.6,8.12,1.34,11.68.87,11.72-1.52,23.64-5.91,37.52-13.82,10.84-6.18,18.13-12.07,23.63-19.12,7.54-9.63,7.36-23.82-.4-32.28l-.05-.06c-.55-.64-1.08-1.28-1.62-1.92L134,66c-.63-.65-1.27-1.29-1.91-1.94l-3.06-2.43c-5.07-3.43-11-5.54-18.6-6.65A43,43,0,0,0,104.4,54.54Z"/><path class="cls-1" d="M70.91,132a20.94,20.94,0,0,1-5.31-.66c-2.67-.7-4.34-1.86-5.1-3.55s-.51-3.63.71-6c1-1.93,2.09-3.82,3.14-5.66.67-1.16,1.35-2.32,2-3.5,5.46-9.93,9.65-21.48,13.18-36.35C82.7,62.84,92.6,55.65,106.66,56.53A47,47,0,0,1,128.11,63l.25.18.51.42c3.28,2.76,7.36,6.63,9.52,12.07a5.85,5.85,0,0,1,.28.71l0,.12c3.25,11-.14,20.88-10.06,29.38h0a112.16,112.16,0,0,1-52.58,25.56A27.9,27.9,0,0,1,70.91,132Zm33.5-71.49c-11,0-18.42,5.86-21,16.67-3.61,15.24-7.92,27.11-13.57,37.36-.66,1.2-1.35,2.39-2,3.57-1,1.79-2.1,3.64-3,5.49a3.68,3.68,0,0,0-.62,2.56c.22.48,1.11,1,2.46,1.31a19.69,19.69,0,0,0,8.71.09,108.22,108.22,0,0,0,50.73-24.67h0c8.72-7.46,11.61-15.69,8.84-25.15,0-.15-.11-.3-.18-.46-1.86-4.66-5.3-8-8.43-10.58l-.36-.3a42.54,42.54,0,0,0-19.51-5.83C105.73,60.48,105.07,60.46,104.41,60.46Z"/><path class="cls-1" d="M70.43,153.54l-1.66,0A16.32,16.32,0,0,1,60,151c-5.25-3.52-5.26-8.83-4.82-14l.17-2L57.08,136c10.28,6.19,20.53,3.81,31.91.33a121,121,0,0,0,46.58-26.1,43.84,43.84,0,0,0,4-4.33c1-1.15,2-2.35,3.12-3.53l2.55-2.66-.36,3.67c-.85,8.45-4.61,15.46-11.85,22.07-10.29,9.39-23.13,16.93-39.23,23C87.53,150.88,79.32,153.54,70.43,153.54ZM57.56,139.2c-.19,3.91.31,7.29,3.83,9.66A14.1,14.1,0,0,0,68.87,151c9.06.33,17.6-2.41,24-4.85,15.79-6,28.36-13.36,38.42-22.53,5.45-5,8.78-10.19,10.27-16.12l-.07.09a48.52,48.52,0,0,1-4.22,4.58,123.83,123.83,0,0,1-47.55,26.65C78.82,142.13,68.13,144.64,57.56,139.2Z"/><path class="cls-1" d="M119.43,105.94c-1.12,0-1.92-.78-3.35-2.16l0,0c-.53-.51-1.12-1-1.74-1.46-.27-.2-.53-.41-.79-.62l-1.51-.91-1.63-1-3.44-1.23a19.06,19.06,0,0,0-4.26-.43,31.26,31.26,0,0,1-3.44-.24l-.36,0-.13,0a2.29,2.29,0,0,1-1.53-.2c-5.73-.45-10.31-3.41-14.17-6.16-1.91-1.36-1.11-3.2-.72-4.09l0-.07A2.22,2.22,0,0,1,83.7,86a2.31,2.31,0,0,1,2,.46l.23.14a9.51,9.51,0,0,0,8.28-.09c7.36-3.76,16-9.56,17.71-21.1.3-2,1.38-2.3,2.24-2.21a9.35,9.35,0,0,1,4.66,1.49,1.88,1.88,0,0,1,.82,1.38,2.24,2.24,0,0,1-.81,1.75l-.14.15a28.36,28.36,0,0,0-4.94,11.85l0,4.2.14,1.91.06.25.88,4c1.86,5.43,4.32,8.88,8,11.21l1.26.8-1,1.12-.95-.85.94.86c-1.56,1.74-2.34,2.61-3.54,2.65ZM99.24,95.28l.19,0a23.39,23.39,0,0,0,3.3.24,20.7,20.7,0,0,1,4.89.54l.1,0,3.84,1.39,1.74,1L115,99.62c.26.22.54.43.81.64a24.22,24.22,0,0,1,2,1.64l0,0a13.29,13.29,0,0,0,1.58,1.41,5.46,5.46,0,0,0,.77-.72c-3.46-2.61-6-6.38-7.78-11.73l0-.14-.91-4.12a2.07,2.07,0,0,0-.06-.26l0-.19-.16-2.14,0-4.45,0-.1a30.9,30.9,0,0,1,5.39-13l.09-.12a7.5,7.5,0,0,0-2.26-.58c-1.89,12.69-11.18,18.94-19.07,23A12.08,12.08,0,0,1,85,88.94a3.61,3.61,0,0,1-.44-.23,1.9,1.9,0,0,0-.18.59h0a1,1,0,0,0,.16.14c3.63,2.59,7.94,5.38,13.14,5.71l.33,0,.25.16.34-.18.5.16Z"/><path class="cls-1" d="M90.36,85.32l-.43,0c-2.35-.06-3.94-.67-4.87-1.88s-1.09-2.82-.56-5c1.36-5.51,4.2-13.13,13.24-15.66a26.57,26.57,0,0,1,8.61-.87A3.72,3.72,0,0,1,109.24,63a3.61,3.61,0,0,1,.45,2.95h0a21.16,21.16,0,0,1-4.7,9.86C101.6,80,97.1,82.6,93.57,84.45A7.05,7.05,0,0,1,90.36,85.32ZM104.75,64.4a23.69,23.69,0,0,0-6.33.82C92.44,66.9,88.91,71.16,87,79c-.34,1.36-.3,2.32.1,2.84.53.69,1.9.86,3,.89h.09a4.24,4.24,0,0,0,2.26-.56c3.54-1.85,7.56-4.24,10.65-8a18.73,18.73,0,0,0,4.16-8.7,2,2,0,0,0,0-.94,4.82,4.82,0,0,0-1-.13C105.72,64.42,105.23,64.4,104.75,64.4Z"/><path class="cls-1" d="M99.3,118.05,99,118a2.3,2.3,0,0,1-1.48-1l-.23-.34v-.41A7.73,7.73,0,0,0,95,110.67l-.08-.11c-3.31-4.58-8.12-7.13-13.21-9.82l-.07,0a3.52,3.52,0,0,0-.39-.16,2.79,2.79,0,0,1-2.14-3c.08-1.13.33-2.69,1.61-3.33s2.62.08,3.53.67A44.18,44.18,0,0,0,95.59,100c.82,0,1.67,0,2.49,0,3.51-.08,7.14-.17,10.64,1.6a5.37,5.37,0,0,1,2.66,1.26c3.45,2.53,4.88,3.59,4.78,5.06-.08,1.25-1.2,1.86-2.75,2.71-.64.35-1.44.78-2.32,1.34h0c-2.59,1.61-5.34,3-8,4.35l-1.94,1a1.74,1.74,0,0,0-.22.15A2.82,2.82,0,0,1,99.3,118.05Zm-2.37-9a10.61,10.61,0,0,1,2.84,6.09L100,115l2-1c2.61-1.33,5.31-2.69,7.8-4.25h0c1-.59,1.78-1,2.45-1.41.44-.23.92-.5,1.23-.7a39.11,39.11,0,0,0-3.6-2.81l-.12-.1a2.93,2.93,0,0,0-1.6-.71l-.2,0-.18-.09c-3-1.56-6.18-1.49-9.58-1.4-.91,0-1.84,0-2.76,0H95.2l-.18,0a47,47,0,0,1-12.17-5.41,3.48,3.48,0,0,0-1-.49,3.89,3.89,0,0,0-.22,1.19.54.54,0,0,0,0,.19l.49.19a4.89,4.89,0,0,1,.68.3l.07,0C88,101.19,93.28,104,96.93,109Z"/><path class="cls-1" d="M70.11,126.46h-.88c-.63,0-2.11,0-2.73-1.19a3,3,0,0,1,.48-3,121,121,0,0,0,9.54-18.58,2.83,2.83,0,0,1,1.65-1.86,2.75,2.75,0,0,1,2.31.52c.94.62,2,1.19,2.93,1.74l1.21.69a3.93,3.93,0,0,1,2,1.29c3.78,2.13,7.37,4.81,8.42,9.74a3.8,3.8,0,0,1,.23,3.21,4.08,4.08,0,0,1-2.87,2.12h0c-.91.27-1.8.62-2.75,1l-1.35.51-1.46.53a17,17,0,0,1-5.1,1.31l-1,.4A36.59,36.59,0,0,1,70.11,126.46ZM69,123.9h.29a34.37,34.37,0,0,0,10.63-1.41l1.26-.51h.23a14.57,14.57,0,0,0,4.52-1.16c.5-.19,1-.38,1.5-.55s.84-.31,1.27-.48a30.82,30.82,0,0,1,3-1.06,2.09,2.09,0,0,0,1.25-.71,1.78,1.78,0,0,0-.27-1.21l-.08-.15,0-.17c-.77-3.88-3.51-6.12-7.39-8.29l-.22-.12-.15-.19a1.47,1.47,0,0,0-.89-.63l-.21,0-.19-.11-1.34-.77c-1-.57-2.07-1.17-3.08-1.83l-.1-.07-.1.23a123.37,123.37,0,0,1-9.74,19A2.18,2.18,0,0,0,69,123.9Z"/><path class="cls-1" d="M125.66,100.34a3.25,3.25,0,0,1-2.11-.89A14.12,14.12,0,0,1,119,93.87a7.46,7.46,0,0,1-1.42-2.54l-.16-.42-.06-.18-.76-3.15c-.57-2.3-1.28-5.18-.46-8.13,0-.29.06-.58.08-.87l0-.1c.65-3.7,2.53-6.78,4.36-9.75l.34-.55a2.77,2.77,0,0,1,1.67-1.37,2.9,2.9,0,0,1,2.25.65,21.47,21.47,0,0,1,9.28,13.08l0,.07c1.17,6.58-.8,12.58-6,18.37h0A3.49,3.49,0,0,1,125.66,100.34ZM119.81,90l.15.37a4.65,4.65,0,0,0,1,1.82l.24.22.1.3c.65,1.91,2.08,3.22,3.89,4.75a1.18,1.18,0,0,0,.48.3,2.1,2.1,0,0,0,.59-.53c4.71-5.22,6.42-10.36,5.4-16.18a18.77,18.77,0,0,0-8.23-11.52l-.26-.17a.37.37,0,0,1-.06.1l-.34.56c-1.77,2.88-3.44,5.61-4,8.81,0,.33-.06.65-.1,1l0,.21c-.67,2.34-.07,4.78.46,6.93Z"/><path class="cls-1" d="M100,179a76.54,76.54,0,1,1,76.54-76.54A76.63,76.63,0,0,1,100,179Zm0-150.54a74,74,0,1,0,74,74A74.08,74.08,0,0,0,100,28.41Z"/></svg>